<svg width="340" height="235" viewBox="0 0 340 235" fill="none" xmlns="http://www.w3.org/2000/svg">
<g clip-path="url(#clip0_75_636)">
<rect width="340" height="235" fill="white"/>
<path d="M25.5311 215.657C27.4902 216.212 29.5937 216.351 31.6389 216.061C33.6841 215.771 35.6021 215.061 37.208 214.001C41.2978 211.235 42.5804 206.681 43.6234 202.464L46.7095 189.988L40.2486 193.571C35.602 196.148 30.8511 198.807 27.6341 202.54C24.4172 206.272 23.0137 211.368 25.5977 215.407" fill="#E6E6E6"/>
<path d="M26.5287 231.63C25.7155 226.858 24.8789 222.025 25.4506 217.201C25.9573 212.918 27.5799 208.735 30.8831 205.303C32.6364 203.486 34.7699 201.929 37.1876 200.702C37.8179 200.381 38.3982 201.186 37.7706 201.505C33.5872 203.634 30.3514 206.779 28.5298 210.485C26.518 214.607 26.1949 219.099 26.5414 223.478C26.7509 226.125 27.196 228.755 27.643 231.383C27.6783 231.501 27.6563 231.627 27.5814 231.733C27.5065 231.839 27.3843 231.918 27.2395 231.955C27.0918 231.987 26.9344 231.971 26.8014 231.91C26.6684 231.849 26.5706 231.748 26.5291 231.63L26.5287 231.63Z" fill="#F2F2F2"/>
<path d="M32.3818 223.973C33.222 225.002 34.3769 225.839 35.7354 226.404C37.0939 226.969 38.6101 227.243 40.138 227.199C44.0653 227.048 47.3381 224.842 50.284 222.746L58.9993 216.548L53.2315 216.325C49.0835 216.165 44.8285 216.015 40.8776 217.047C36.9268 218.078 33.2832 220.557 32.5609 223.851" fill="#E6E6E6"/>
<path d="M24.2298 234.373C28.1448 228.794 32.6855 222.593 40.7997 220.611C43.0557 220.062 45.4212 219.865 47.7689 220.031C48.5089 220.083 48.3241 221.001 47.5856 220.95C43.6502 220.687 39.7224 221.524 36.4635 223.32C33.3274 225.039 30.8855 227.43 28.819 229.965C27.553 231.517 26.4191 233.136 25.2852 234.752C24.9228 235.269 23.8632 234.896 24.2298 234.373Z" fill="#F2F2F2"/>
<path d="M337.492 165.494H121.65C120.985 165.493 120.348 165.28 119.877 164.901C119.407 164.522 119.142 164.009 119.142 163.473V2.02068C119.142 1.48498 119.407 0.971413 119.877 0.592615C120.348 0.213818 120.985 0.000700296 121.65 0H337.492C338.157 0.000700296 338.794 0.213818 339.264 0.592615C339.735 0.971413 339.999 1.48498 340 2.02068V163.473C339.999 164.008 339.735 164.522 339.265 164.901C338.794 165.28 338.157 165.493 337.492 165.494Z" fill="white"/>
<path d="M337.492 165.494H121.65C120.985 165.493 120.348 165.28 119.877 164.901C119.407 164.522 119.142 164.009 119.142 163.473V2.02068C119.142 1.48498 119.407 0.971413 119.877 0.592615C120.348 0.213818 120.985 0.000700296 121.65 0H337.492C338.157 0.000700296 338.794 0.213818 339.264 0.592615C339.735 0.971413 339.999 1.48498 340 2.02068V163.473C339.999 164.008 339.735 164.522 339.265 164.901C338.794 165.28 338.157 165.493 337.492 165.494ZM121.65 0.806678C121.252 0.807375 120.87 0.935225 120.588 1.16225C120.306 1.38926 120.147 1.69697 120.146 2.01802V163.473C120.147 163.794 120.306 164.101 120.588 164.328C120.87 164.555 121.252 164.683 121.65 164.684H337.492C337.89 164.683 338.272 164.555 338.554 164.328C338.836 164.101 338.995 163.794 338.995 163.473V2.02068C338.995 1.69962 338.836 1.39192 338.554 1.1649C338.272 0.937877 337.89 0.810027 337.492 0.80933L121.65 0.806678Z" fill="#CACACA"/>
<path d="M223.639 41.9539C223.188 41.9545 222.755 42.0993 222.436 42.3565C222.118 42.6137 221.938 42.9623 221.938 43.3257C221.938 43.6892 222.118 44.0377 222.436 44.2949C222.755 44.5521 223.188 44.6969 223.639 44.6976H317.095C317.546 44.6969 317.979 44.5521 318.297 44.2949C318.616 44.0377 318.795 43.6892 318.795 43.3257C318.795 42.9623 318.616 42.6137 318.297 42.3565C317.979 42.0993 317.546 41.9545 317.095 41.9539H223.639Z" fill="#E4E4E4"/>
<path d="M223.639 50.1857C223.188 50.1866 222.756 50.3315 222.437 50.5887C222.119 50.8459 221.94 51.1943 221.94 51.5576C221.94 51.9208 222.119 52.2693 222.437 52.5264C222.756 52.7836 223.188 52.9285 223.639 52.9294H271.35C271.801 52.9285 272.233 52.7836 272.552 52.5264C272.87 52.2693 273.049 51.9208 273.049 51.5576C273.049 51.1943 272.87 50.8459 272.552 50.5887C272.233 50.3315 271.801 50.1866 271.35 50.1857H223.639Z" fill="#E4E4E4"/>
<path d="M141.955 94.4537C141.504 94.4545 141.072 94.5995 140.754 94.8566C140.435 95.1138 140.256 95.4622 140.256 95.8255C140.256 96.1888 140.435 96.5372 140.754 96.7944C141.072 97.0515 141.504 97.1965 141.955 97.1973H317.186C317.637 97.1965 318.069 97.0515 318.388 96.7944C318.706 96.5372 318.885 96.1888 318.885 95.8255C318.885 95.4622 318.706 95.1138 318.388 94.8566C318.069 94.5995 317.637 94.4545 317.186 94.4537H141.955Z" fill="#E4E4E4"/>
<path d="M141.955 102.685C141.504 102.686 141.072 102.831 140.754 103.088C140.435 103.346 140.256 103.694 140.256 104.057C140.256 104.421 140.435 104.769 140.754 105.026C141.072 105.283 141.504 105.428 141.955 105.429H271.441C271.892 105.428 272.324 105.283 272.643 105.026C272.961 104.769 273.14 104.421 273.14 104.057C273.14 103.694 272.961 103.346 272.643 103.088C272.324 102.831 271.892 102.686 271.441 102.685H141.955Z" fill="#E4E4E4"/>
<path d="M141.955 110.731C141.504 110.732 141.072 110.877 140.754 111.134C140.435 111.391 140.256 111.74 140.256 112.103C140.256 112.466 140.435 112.815 140.754 113.072C141.072 113.329 141.504 113.474 141.955 113.475H317.186C317.637 113.474 318.069 113.329 318.388 113.072C318.706 112.815 318.885 112.466 318.885 112.103C318.885 111.74 318.706 111.391 318.388 111.134C318.069 110.877 317.637 110.732 317.186 110.731H141.955Z" fill="#E4E4E4"/>
<path d="M141.955 118.963C141.504 118.964 141.072 119.109 140.754 119.366C140.435 119.623 140.256 119.971 140.256 120.335C140.256 120.698 140.435 121.046 140.754 121.304C141.072 121.561 141.504 121.706 141.955 121.707H271.441C271.892 121.706 272.324 121.561 272.643 121.304C272.961 121.046 273.14 120.698 273.14 120.335C273.14 119.971 272.961 119.623 272.643 119.366C272.324 119.109 271.892 118.964 271.441 118.963H141.955Z" fill="#E4E4E4"/>
<path d="M141.955 127.223C141.504 127.224 141.072 127.369 140.754 127.626C140.435 127.883 140.256 128.231 140.256 128.595C140.256 128.958 140.435 129.306 140.754 129.563C141.072 129.821 141.504 129.966 141.955 129.966H317.186C317.637 129.966 318.069 129.821 318.388 129.563C318.706 129.306 318.885 128.958 318.885 128.595C318.885 128.231 318.706 127.883 318.388 127.626C318.069 127.369 317.637 127.224 317.186 127.223H141.955Z" fill="#E4E4E4"/>
<path d="M141.955 135.455C141.504 135.456 141.072 135.6 140.754 135.858C140.435 136.115 140.256 136.463 140.256 136.826C140.256 137.19 140.435 137.538 140.754 137.795C141.072 138.053 141.504 138.197 141.955 138.198H271.441C271.892 138.197 272.324 138.053 272.643 137.795C272.961 137.538 273.14 137.19 273.14 136.826C273.14 136.463 272.961 136.115 272.643 135.858C272.324 135.6 271.892 135.456 271.441 135.455H141.955Z" fill="#E4E4E4"/>
<path d="M169.71 67.1512C164.871 67.1512 160.14 65.9953 156.116 63.8296C152.091 61.6639 148.955 58.5857 147.103 54.9842C145.251 51.3828 144.766 47.4198 145.71 43.5965C146.655 39.7732 148.985 36.2613 152.407 33.5048C155.829 30.7483 160.189 28.8712 164.936 28.1107C169.683 27.3501 174.603 27.7404 179.074 29.2322C183.546 30.724 187.367 33.2502 190.056 36.4915C192.745 39.7327 194.18 43.5434 194.18 47.4416C194.173 52.667 191.592 57.6768 187.005 61.3718C182.417 65.0667 176.198 67.1452 169.71 67.1512Z" fill="#00BFA6"/>
<path d="M95.4312 141.675C95.3889 140.955 95.1512 140.252 94.735 139.615C94.3188 138.977 93.7342 138.421 93.0222 137.985C92.3103 137.55 91.4884 137.245 90.6144 137.093C89.7405 136.94 88.8357 136.944 87.9639 137.104L79.8757 127.923L71.75 130.521L83.3982 143.358C83.8288 144.52 84.7736 145.514 86.0535 146.152C87.3334 146.791 88.8596 147.029 90.3428 146.821C91.826 146.614 93.1633 145.975 94.1011 145.027C95.0389 144.078 95.5122 142.885 95.4312 141.675Z" fill="#A0616A"/>
<path d="M79.6675 140.994L55.1938 115.421L64.3639 92.2073C65.0359 86.3711 69.57 84.7414 69.7629 84.6748L70.0572 84.5732L78.0369 101.713L72.1779 114.298L86.5586 133.779L79.6675 140.994Z" fill="#3F3D56"/>
<path d="M164.661 62.1601C163.773 62.2498 162.921 62.495 162.165 62.8785C161.408 63.262 160.765 63.7745 160.28 64.3799C159.796 64.9853 159.482 65.6689 159.362 66.3825C159.241 67.0961 159.316 67.8224 159.581 68.5102L148.842 75.7153L152.686 82.0398L167.674 71.6932C169.079 71.2575 170.237 70.422 170.928 69.3448C171.619 68.2675 171.796 67.0235 171.424 65.8485C171.053 64.6734 170.159 63.6489 168.913 62.9691C167.666 62.2894 166.153 62.0015 164.661 62.1601Z" fill="#A0616A"/>
<path d="M165.037 74.8719L135.275 96.5029L105.832 90.9336C98.5561 90.8451 96.1883 87.33 96.091 87.1802L95.9424 86.9518L116.541 79.2184L132.571 82.9505L155.573 69.8958L165.037 74.8719Z" fill="#3F3D56"/>
<path d="M113.484 228.647L121.481 228.646L125.284 203.802L113.482 203.803L113.484 228.647Z" fill="#A0616A"/>
<path d="M136.903 234.627L111.771 234.628L111.77 226.806L129.852 226.806C131.722 226.806 133.515 227.404 134.837 228.469C136.16 229.534 136.903 230.978 136.903 232.485L136.903 234.627Z" fill="#2F2E41"/>
<path d="M81.523 228.647L89.5196 228.646L93.3239 203.802L81.522 203.803L81.523 228.647Z" fill="#A0616A"/>
<path d="M104.942 234.627L79.8098 234.628L79.8094 226.806L97.8906 226.806C98.8165 226.806 99.7334 226.953 100.589 227.238C101.444 227.523 102.222 227.942 102.876 228.469C103.531 228.996 104.051 229.622 104.405 230.311C104.759 231 104.942 231.739 104.942 232.485L104.942 234.627Z" fill="#2F2E41"/>
<path d="M78.6792 137.964L79.3314 174.74L79.9841 223.074L94.3334 222.024L101.509 155.301L110.64 222.024H125.455L126.947 154.776L121.729 140.066L78.6792 137.964Z" fill="#2F2E41"/>
<path d="M106.765 142.903C91.1514 142.903 76.7795 137.212 76.5855 137.133L76.4243 137.068L75.114 111.741C74.7341 110.846 67.2524 93.1855 65.9853 87.5721C64.7015 81.885 83.3082 76.8938 85.5677 76.3101L86.0804 71.735L106.932 69.9253L109.574 75.7793L117.055 78.0386C117.903 78.2949 118.605 78.7929 119.027 79.4382C119.45 80.0835 119.564 80.8312 119.348 81.5397L115.19 95.158L125.345 140.214L123.158 140.29C117.919 142.196 112.263 142.902 106.765 142.903Z" fill="#3F3D56"/>
<path d="M104.523 65.5457C111.799 62.3423 114.473 54.995 110.495 49.135C106.518 43.275 97.3966 41.1214 90.1213 44.3248C82.846 47.5282 80.1723 54.8755 84.1493 60.7355C88.1264 66.5955 97.2482 68.7491 104.523 65.5457Z" fill="#A0616A"/>
<path d="M85.1627 66.6416C88.0238 69.0964 93.3372 67.7786 93.7101 64.425C93.7393 64.1647 93.7372 63.9026 93.7037 63.6426C93.5112 62.1571 92.4458 60.8084 92.701 59.2399C92.7587 58.8496 92.9393 58.4775 93.2255 58.1591C95.5055 55.7 100.857 59.259 103.009 57.0328C104.329 55.6678 102.778 53.5187 103.79 51.993C105.126 49.9794 109.084 50.9727 111.567 49.8699C114.328 48.643 114.163 45.2301 112.345 43.1541C110.128 40.6225 106.241 39.2716 102.402 39.0769C98.5635 38.8822 94.7512 39.718 91.1674 40.843C87.0955 42.1212 83.0576 43.8876 80.5517 46.7716C77.5044 50.2788 77.2112 54.9938 78.7352 59.0948C79.6623 61.5895 82.8263 64.637 85.1627 66.6416Z" fill="#2F2E41"/>
<path d="M190.765 234.938H0.499384C0.366939 234.938 0.239911 234.896 0.146258 234.82C0.0526055 234.745 0 234.643 0 234.536C0 234.429 0.0526055 234.327 0.146258 234.252C0.239911 234.176 0.366939 234.134 0.499384 234.134H190.765C190.897 234.134 191.024 234.176 191.118 234.252C191.212 234.327 191.264 234.429 191.264 234.536C191.264 234.643 191.212 234.745 191.118 234.82C191.024 234.896 190.897 234.938 190.765 234.938Z" fill="#CACACA"/>
<path d="M168.297 54.8859C167.856 54.8863 167.431 54.7518 167.108 54.5096L159.039 48.4731C158.7 48.2189 158.5 47.8666 158.483 47.4938C158.466 47.1209 158.634 46.7579 158.949 46.4845C159.264 46.2111 159.701 46.0497 160.164 46.0357C160.627 46.0217 161.078 46.1564 161.418 46.41L168.252 51.5232L181.774 40.6322C181.936 40.5006 182.129 40.3962 182.341 40.3248C182.553 40.2534 182.781 40.2164 183.011 40.2161C183.241 40.2157 183.469 40.252 183.682 40.3228C183.895 40.3935 184.088 40.4974 184.251 40.6285C184.413 40.7596 184.542 40.9152 184.63 41.0865C184.718 41.2579 184.763 41.4414 184.762 41.6268C184.762 41.8121 184.716 41.9956 184.627 42.1666C184.539 42.3376 184.409 42.4928 184.245 42.6234L169.533 54.4736C169.371 54.6045 169.178 54.7083 168.966 54.7791C168.754 54.8498 168.526 54.8861 168.297 54.8859Z" fill="white"/>
</g>
<defs>
<clipPath id="clip0_75_636">
<rect width="340" height="235" fill="white"/>
</clipPath>
</defs>
</svg>
