<svg width="821" height="793" viewBox="0 0 821 793" fill="none" xmlns="http://www.w3.org/2000/svg">
<path fill-rule="evenodd" clip-rule="evenodd" d="M501.094 0.0295554C668.889 2.31695 782.247 154.558 832.748 317.264C881.658 474.841 869.232 660.976 735.286 754.553C608.715 842.978 450.298 763.54 326.804 670.727C207.54 581.094 103.004 453.62 140.889 307.832C185.184 137.38 327.707 -2.33406 501.094 0.0295554Z" fill="#657ED4"/>
<g clip-path="url(#clip0_13_124)">
<path d="M407.102 447.132H59.4704V661.714H407.102V447.132Z" fill="#E6E6E6"/>
<path d="M397.162 465.533H69.4111V644.565H397.162V465.533Z" fill="white"/>
<path d="M342.351 498.857H333.864V509.897H342.351V498.857Z" fill="#E6E6E6"/>
<path d="M115.973 498.857H107.486V509.897H115.973V498.857Z" fill="#3626A7"/>
<path d="M135.532 530.48H107.241V567.282H135.532V530.48Z" fill="#E6E6E6"/>
<path d="M406.954 434.735H59.3222V453.946H406.954V434.735Z" fill="#3626A7"/>
<path d="M70.297 452.163C71.8087 452.163 73.0343 450.569 73.0343 448.602C73.0343 446.636 71.8087 445.041 70.297 445.041C68.7852 445.041 67.5597 446.636 67.5597 448.602C67.5597 450.569 68.7852 452.163 70.297 452.163Z" fill="white"/>
<path d="M80.6868 452.163C82.1985 452.163 83.424 450.569 83.424 448.602C83.424 446.636 82.1985 445.041 80.6868 445.041C79.175 445.041 77.9495 446.636 77.9495 448.602C77.9495 450.569 79.175 452.163 80.6868 452.163Z" fill="white"/>
<path d="M91.077 452.163C92.5888 452.163 93.8143 450.569 93.8143 448.602C93.8143 446.636 92.5888 445.041 91.077 445.041C89.5653 445.041 88.3398 446.636 88.3398 448.602C88.3398 450.569 89.5653 452.163 91.077 452.163Z" fill="white"/>
<path d="M460 661.715H0V663H460V661.715Z" fill="#E6E6E6"/>
<path d="M234.184 534.161H164.873V539.337H234.184V534.161Z" fill="#E6E6E6"/>
<path d="M271.905 553.041H164.873V558.217H271.905V553.041Z" fill="#3626A7"/>
<path d="M252.102 570.827H164.873V576.003H252.102V570.827Z" fill="#E6E6E6"/>
<path d="M215.796 588.548H164.873V593.724H215.796V588.548Z" fill="#E6E6E6"/>
<path d="M241.729 606.267H164.873V611.443H241.729V606.267Z" fill="#E6E6E6"/>
<path d="M356.968 498.857H348.481V509.897H356.968V498.857Z" fill="#E6E6E6"/>
<path d="M371.585 498.857H363.098V509.897H371.585V498.857Z" fill="#E6E6E6"/>
<path opacity="0.997" d="M354.349 593.723C363.868 593.723 371.585 583.685 371.585 571.302C371.585 558.919 363.868 548.881 354.349 548.881C344.83 548.881 337.113 558.919 337.113 571.302C337.113 583.685 344.83 593.723 354.349 593.723Z" fill="#3626A7"/>
<path d="M93.131 316.71C103.848 316.71 112.535 305.409 112.535 291.469C112.535 277.528 103.848 266.227 93.131 266.227C82.4142 266.227 73.7265 277.528 73.7265 291.469C73.7265 305.409 82.4142 316.71 93.131 316.71Z" fill="#2F2E41"/>
<path d="M44.8404 507.442H36.342L32.2998 464.813H44.8394L44.8404 507.442Z" fill="#FEB8B8"/>
<path d="M30.2755 504.284H46.6611V517.705H19.9584C19.9584 514.145 21.0453 510.732 22.9802 508.215C24.915 505.698 27.5392 504.284 30.2755 504.284Z" fill="#2F2E41"/>
<path d="M31.5774 501.274L23.4714 497.965L29.4262 455.715L41.3901 460.599L31.5774 501.274Z" fill="#FEB8B8"/>
<path d="M18.403 492.589L34.0373 498.972L30.9481 511.777L5.47045 501.376C5.87613 499.695 6.53245 498.133 7.40195 496.782C8.27144 495.43 9.33709 494.315 10.538 493.499C11.739 492.683 13.0517 492.182 14.4012 492.027C15.7508 491.871 17.1107 492.062 18.4035 492.59L18.403 492.589Z" fill="#2F2E41"/>
<path d="M34.3419 484.263C33.9706 484.263 33.6024 484.176 33.2549 484.006L27.0021 480.957C26.3004 480.612 25.7175 479.95 25.3595 479.092C25.0015 478.234 24.8924 477.238 25.052 476.284C26.6257 467.079 31.989 435.742 34.9259 418.934C38.4088 398.997 89.2193 395.293 91.3804 395.145L91.5583 395.133L97.274 404.472C99.3393 413.108 98.6846 419.844 95.3283 424.493C85.5339 438.058 56.292 429.641 52.8052 428.576L37.2635 481.651C37.037 482.419 36.6366 483.08 36.1153 483.547C35.5939 484.013 34.9761 484.263 34.3434 484.263H34.3419Z" fill="#2F2E41"/>
<path d="M43.3512 490.574C42.9799 490.574 42.6117 490.487 42.2642 490.317L36.0134 487.268C35.3116 486.922 34.7286 486.26 34.3706 485.402C34.0126 484.545 33.9035 483.548 34.0632 482.594C35.6369 473.39 41.0003 442.053 43.9372 425.245C47.42 405.308 98.2305 401.603 100.392 401.455L100.57 401.443L106.283 410.785C108.349 419.421 107.694 426.157 104.337 430.806C94.5436 444.368 65.3012 435.954 61.8144 434.888L46.2708 487.961C46.0443 488.73 45.6439 489.391 45.1226 489.857C44.6012 490.323 43.9834 490.573 43.3507 490.573L43.3512 490.574Z" fill="#2F2E41"/>
<path d="M25.2669 360.736C25.4964 361.136 25.7015 361.558 25.8801 362L60.0604 366.684L64.9815 357.908L76.1327 365.836L66.4688 387.131L24.5495 373.228C23.4919 374.569 22.1454 375.46 20.6891 375.781C19.2329 376.103 17.7359 375.84 16.3972 375.028C15.0585 374.216 13.9416 372.893 13.1951 371.235C12.4485 369.577 12.1077 367.663 12.2178 365.747C12.328 363.831 12.8841 362.004 13.8119 360.509C14.7398 359.014 15.9956 357.921 17.4123 357.377C18.8289 356.833 20.3393 356.863 21.7426 357.463C23.1458 358.063 24.3755 359.205 25.2679 360.736L25.2669 360.736Z" fill="#FEB8B8"/>
<path d="M104.697 414.361C104.202 414.36 103.716 414.206 103.276 413.911C96.4414 409.39 83.1325 401.561 70.7911 399.923C70.3687 399.869 69.9597 399.701 69.5902 399.429C69.2208 399.158 68.8991 398.789 68.6457 398.346C68.3875 397.898 68.2029 397.386 68.1036 396.842C68.0042 396.297 67.9921 395.732 68.0681 395.181C69.1818 387.162 71.7363 366.741 71.4072 350.375C71.3103 345.343 72.5325 340.417 74.8728 336.409C77.2132 332.4 80.5323 329.546 84.2847 328.317C86.5432 327.542 88.837 326.953 91.1526 326.555C93.8149 326.117 96.519 326.495 99.0486 327.661C101.578 328.826 103.863 330.746 105.719 333.266C107.576 335.787 108.953 338.838 109.74 342.175C110.527 345.512 110.702 349.043 110.252 352.484C108.051 369.445 105.832 393.133 107.761 409.669C107.849 410.411 107.778 411.169 107.556 411.861C107.333 412.553 106.968 413.152 106.5 413.59C105.977 414.089 105.345 414.359 104.697 414.361Z" fill="#CCCCCC"/>
<path d="M72.0402 371.222C71.6141 371.222 71.1927 371.107 70.802 370.886L61.8979 365.873C61.1395 365.445 60.5427 364.642 60.2384 363.642C59.9341 362.642 59.9472 361.526 60.2748 360.538L67.1575 339.856C67.5664 338.603 68.161 337.466 68.9074 336.512C69.6538 335.558 70.5374 334.804 71.5077 334.294C72.4781 333.784 73.5162 333.527 74.5627 333.539C75.6093 333.551 76.6438 333.83 77.6073 334.362C78.5707 334.894 79.4442 335.668 80.1778 336.638C80.9115 337.609 81.4909 338.759 81.8831 340.021C82.2753 341.283 82.4725 342.634 82.4634 343.995C82.4544 345.357 82.2393 346.702 81.8305 347.956C81.8156 348.001 81.8005 348.047 81.7851 348.092L74.9024 368.775C74.6601 369.501 74.2603 370.119 73.7519 370.554C73.2434 370.989 72.6486 371.221 72.0402 371.222Z" fill="#CCCCCC"/>
<path d="M92.422 319.519C101.823 319.519 109.443 309.606 109.443 297.377C109.443 285.148 101.823 275.235 92.422 275.235C83.0213 275.235 75.4005 285.148 75.4005 297.377C75.4005 309.606 83.0213 319.519 92.422 319.519Z" fill="#FEB8B8"/>
<path d="M75.0941 286.496C83.1566 292.899 92.246 296.795 101.655 297.881L98.855 293.518C100.894 294.498 103.039 295.052 105.211 295.159C106.298 295.2 107.378 294.909 108.363 294.309C109.348 293.709 110.212 292.817 110.884 291.704C111.433 290.55 111.759 289.239 111.835 287.885C111.91 286.531 111.733 285.173 111.318 283.927C110.464 281.442 109.136 279.282 107.46 277.652C104.489 274.595 100.982 272.541 97.2522 271.674C93.5226 270.807 89.6859 271.153 86.0842 272.683C83.6135 273.643 81.4008 275.49 79.6996 278.01C78.0859 280.6 74.9795 282.907 75.8056 286.063L75.0941 286.496Z" fill="#2F2E41"/>
<path d="M93.9438 267.844C97.3365 263.367 101.442 259.912 105.972 257.723C108.848 256.149 112.001 255.64 115.085 256.251C118.125 257.047 121 259.783 121.848 263.663C122.54 266.835 121.825 270.251 120.749 273.239C119.673 276.227 118.236 278.996 117.366 282.094C116.478 285.255 116.21 288.654 116.589 291.984C116.967 295.313 117.978 298.467 119.531 301.159C121.084 303.851 123.129 305.996 125.481 307.399C127.832 308.802 130.416 309.419 132.998 309.193C130.011 309.714 127.258 311.54 124.338 312.512C121.419 313.483 117.973 313.418 115.803 310.696C113.508 307.818 113.462 303.137 113.573 298.992L114.067 280.506C114.151 277.364 114.223 274.121 113.352 271.186C112.48 268.252 110.41 265.685 107.993 265.712C106.161 265.732 104.54 267.176 103.07 268.599C101.601 270.023 100.046 271.542 98.2211 271.754C96.3964 271.966 94.3129 270.211 94.4492 267.833" fill="#2F2E41"/>
<path d="M63.8046 408.673C62.6768 408.671 61.5634 408.344 60.5445 407.715C59.5256 407.086 58.6266 406.171 57.9123 405.036C57.198 403.9 56.6862 402.573 56.4137 401.15C56.1412 399.726 56.1148 398.241 56.3364 396.803C56.5581 395.364 57.0222 394.008 57.6954 392.831C58.3687 391.654 59.2342 390.686 60.2297 389.996C61.2251 389.307 62.3258 388.913 63.4523 388.843C64.5789 388.774 65.7032 389.03 66.7445 389.594C67.0577 389.766 67.3613 389.966 67.6531 390.193L98.6599 372.086L99.5309 361.147L112.897 360.682L112.808 378.893C112.792 381.003 112.253 383.05 111.272 384.73C110.29 386.41 108.918 387.634 107.36 388.219L71.1009 401.642C71.0309 401.954 70.9485 402.26 70.8538 402.561C70.2721 404.368 69.2932 405.912 68.0399 407C66.7866 408.087 65.3145 408.669 63.8081 408.673L63.8046 408.673Z" fill="#FEB8B8"/>
<path d="M111.765 369.605C111.385 369.856 110.969 370.002 110.544 370.035L100.86 370.809C100.034 370.874 99.223 370.51 98.6036 369.798C97.9842 369.086 97.6073 368.083 97.5556 367.009L96.4928 344.514C96.3655 341.771 97.0803 339.075 98.4802 337.017C99.8801 334.96 101.851 333.709 103.959 333.541C106.067 333.372 108.141 334.299 109.724 336.118C111.307 337.936 112.271 340.498 112.403 343.241L113.466 365.736C113.503 366.526 113.362 367.313 113.06 368.001C112.758 368.688 112.308 369.246 111.766 369.605H111.765Z" fill="#CCCCCC"/>
<path d="M92.2643 404.637H34.4214C33.9363 404.637 33.5429 405.148 33.5429 405.78V409.804C33.5429 410.435 33.9363 410.947 34.4214 410.947H92.2643C92.7495 410.947 93.1428 410.435 93.1428 409.804V405.78C93.1428 405.148 92.7495 404.637 92.2643 404.637Z" fill="#3F3D56"/>
<path d="M11.3172 405.088V360.914C11.3186 359.36 11.7937 357.871 12.6382 356.772C13.4826 355.674 14.6276 355.056 15.8218 355.054H77.5009C78.6952 355.056 79.8402 355.674 80.6847 356.772C81.5292 357.871 82.0042 359.36 82.0055 360.914V405.088C82.0042 406.642 81.5292 408.131 80.6847 409.23C79.8402 410.328 78.6952 410.946 77.5009 410.948H15.8218C14.6276 410.946 13.4826 410.328 12.6382 409.229C11.7937 408.131 11.3186 406.642 11.3172 405.088Z" fill="#3F3D56"/>
<path d="M47.4032 388.412C49.6998 388.412 51.5615 385.991 51.5615 383.003C51.5615 380.016 49.6998 377.594 47.4032 377.594C45.1067 377.594 43.2449 380.016 43.2449 383.003C43.2449 385.991 45.1067 388.412 47.4032 388.412Z" fill="white"/>
</g>
<g clip-path="url(#clip1_13_124)">
<path d="M705.703 661.049C705.057 661.705 704.384 662.352 703.704 663H626.099C625.461 662.369 624.832 661.721 624.202 661.049C624.176 661.024 624.151 660.992 624.125 660.967C615.694 651.967 610.386 638.884 607.076 625.088C606.864 624.252 606.677 623.408 606.49 622.555C605.622 618.678 604.916 614.76 604.337 610.874C604.235 610.202 604.133 609.53 604.048 608.858C603.265 603.275 602.738 597.783 602.397 592.627C602.355 591.963 602.312 591.316 602.27 590.668C601.647 580.403 601.641 570.112 602.253 559.847C602.253 559.847 602.355 559.847 602.551 559.855C603.121 559.879 604.49 559.937 606.507 560.052C612.062 560.379 622.543 561.199 634.87 563.134C635.542 563.24 636.223 563.355 636.904 563.47C647.33 565.13 657.615 567.53 667.675 570.651C668.305 570.855 668.926 571.06 669.555 571.265L669.564 571.306L677.28 608.612L680.479 575.405C683.023 576.512 685.498 577.692 687.872 578.954C688.535 579.307 689.182 579.659 689.82 580.02C695.246 582.983 700.172 586.725 704.427 591.119C729.737 618.145 724.318 642.302 705.703 661.049Z" fill="#F2F2F2"/>
<path d="M673.272 613.745L674.618 615.181C690.169 631.951 699.45 647.517 702.309 661.675C702.354 661.88 702.386 662.085 702.431 662.291L701.436 662.473L700.477 662.636C697.559 647.2 686.694 631.244 673.134 616.613C672.702 616.138 672.263 615.655 671.81 615.185C666.012 609.04 659.78 603.146 653.478 597.634C652.994 597.203 652.496 596.772 651.998 596.34C643.641 589.107 635.233 582.562 627.734 577.046C627.206 576.654 626.67 576.268 626.142 575.889C613.41 566.602 603.531 560.446 601.33 559.097C601.064 558.928 600.914 558.839 600.88 558.817L601.401 558.015L601.402 558.002L601.93 557.194C601.964 557.216 602.47 557.512 603.382 558.086C606.809 560.214 616.021 566.073 627.48 574.402C627.995 574.78 628.531 575.166 629.059 575.558C635.149 580.029 641.809 585.151 648.536 590.758C650.228 592.164 651.878 593.568 653.485 594.969C653.991 595.394 654.489 595.825 654.972 596.256C661.786 602.214 667.886 608.043 673.272 613.745Z" fill="white"/>
<path d="M635.602 561.543C635.372 562.076 635.126 562.609 634.87 563.134C632.927 567.186 630.442 570.975 627.477 574.405C627.044 574.897 626.601 575.397 626.142 575.889C624.9 577.208 623.578 578.484 622.177 579.717C616.445 584.716 609.652 588.453 602.27 590.668C602.031 590.742 601.802 590.816 601.564 590.881C601.606 591.529 601.649 592.168 601.691 592.832C601.93 592.767 602.159 592.701 602.397 592.627C610.23 590.352 617.44 586.426 623.504 581.135C624.987 579.844 626.399 578.478 627.733 577.044C628.192 576.561 628.635 576.061 629.06 575.561C632.23 571.891 634.868 567.823 636.904 563.47C637.142 562.945 637.38 562.421 637.61 561.888C636.929 561.773 636.257 561.658 635.602 561.543Z" fill="white"/>
<path d="M668.024 569.2C667.922 569.683 667.802 570.167 667.675 570.651C665.368 579.865 660.457 588.284 653.485 594.972C653 595.439 652.506 595.898 651.996 596.341C651.851 596.48 651.689 596.627 651.537 596.759C645.194 602.275 637.575 606.252 629.315 608.356C621.054 610.461 612.391 610.633 604.048 608.858C603.852 608.825 603.648 608.776 603.453 608.735C603.554 609.407 603.648 610.087 603.759 610.759C603.954 610.8 604.142 610.841 604.337 610.874C612.892 612.58 621.744 612.319 630.175 610.113C638.606 607.907 646.379 603.817 652.863 598.177C653.068 597.996 653.28 597.824 653.476 597.636C653.987 597.177 654.48 596.718 654.974 596.259C662.108 589.379 667.154 580.75 669.564 571.306C669.691 570.814 669.81 570.323 669.921 569.831C669.291 569.618 668.662 569.405 668.024 569.2Z" fill="white"/>
<path d="M687.872 577.569C687.88 578.028 687.88 578.495 687.872 578.954C687.73 591.909 682.516 604.334 673.273 613.743C672.796 614.235 672.303 614.71 671.81 615.186C671.274 615.686 670.738 616.186 670.185 616.661C661.626 624.093 650.816 628.678 639.347 629.739C627.878 630.801 616.359 628.282 606.489 622.555C606.32 622.47 606.156 622.377 605.996 622.276C606.2 623.145 606.404 623.998 606.626 624.85C606.779 624.932 606.923 625.014 607.076 625.088C617.232 630.544 628.905 632.803 640.46 631.548C652.014 630.292 662.872 625.586 671.512 618.088C672.065 617.604 672.618 617.12 673.137 616.612C673.647 616.145 674.132 615.669 674.617 615.178C683.99 605.653 689.401 593.14 689.82 580.02C689.837 579.577 689.845 579.135 689.845 578.692C689.199 578.307 688.535 577.938 687.872 577.569Z" fill="white"/>
<path d="M515.881 220.727H366.332C365.088 220.726 363.894 220.249 363.014 219.401C362.134 218.553 361.639 217.404 361.638 216.205V106.793C361.639 105.593 362.134 104.444 363.014 103.596C363.894 102.748 365.088 102.271 366.332 102.269H549.896C551.14 102.271 552.333 102.748 553.213 103.596C554.093 104.444 554.588 105.593 554.59 106.793V183.43C554.578 193.319 550.496 202.799 543.239 209.791C535.982 216.783 526.143 220.716 515.881 220.727Z" fill="white"/>
<path d="M515.881 221.137H366.332C364.975 221.136 363.674 220.616 362.714 219.691C361.754 218.766 361.214 217.512 361.213 216.205V106.793C361.214 105.485 361.754 104.231 362.714 103.306C363.673 102.381 364.975 101.861 366.332 101.859H549.896C551.253 101.861 552.554 102.381 553.514 103.306C554.474 104.231 555.014 105.485 555.015 106.793V183.43C555.003 193.427 550.876 203.012 543.54 210.081C536.203 217.15 526.256 221.126 515.881 221.137ZM366.332 103.499C365.426 103.5 364.557 103.847 363.916 104.465C363.276 105.082 362.915 105.919 362.914 106.793V216.205C362.915 217.078 363.276 217.915 363.916 218.532C364.557 219.15 365.426 219.497 366.332 219.498H515.881C525.805 219.487 535.32 215.684 542.337 208.922C549.355 202.16 553.302 192.993 553.313 183.43V106.793C553.312 105.919 552.952 105.082 552.311 104.465C551.671 103.847 550.802 103.5 549.896 103.499H366.332Z" fill="#CCCCCC"/>
<path d="M513.61 139.22H402.618C401.599 139.22 400.622 138.83 399.901 138.136C399.181 137.441 398.776 136.5 398.776 135.518C398.776 134.536 399.181 133.594 399.901 132.9C400.622 132.206 401.599 131.816 402.618 131.816H513.61C514.628 131.817 515.603 132.208 516.323 132.902C517.042 133.596 517.446 134.537 517.446 135.518C517.446 136.499 517.042 137.44 516.323 138.134C515.603 138.828 514.628 139.218 513.61 139.22Z" fill="#CCCCCC"/>
<path d="M513.61 164.722H402.618C401.599 164.722 400.622 164.332 399.901 163.638C399.181 162.943 398.776 162.002 398.776 161.02C398.776 160.038 399.181 159.097 399.901 158.402C400.622 157.708 401.599 157.318 402.618 157.318H513.61C514.629 157.318 515.606 157.708 516.326 158.402C517.047 159.097 517.452 160.038 517.452 161.02C517.452 162.002 517.047 162.943 516.326 163.638C515.606 164.332 514.629 164.722 513.61 164.722Z" fill="#CCCCCC"/>
<path d="M513.61 190.953H402.618C401.599 190.953 400.622 190.563 399.901 189.869C399.181 189.174 398.776 188.233 398.776 187.251C398.776 186.269 399.181 185.328 399.901 184.633C400.622 183.939 401.599 183.549 402.618 183.549H513.61C514.629 183.549 515.606 183.939 516.326 184.633C517.047 185.328 517.452 186.269 517.452 187.251C517.452 188.233 517.047 189.174 516.326 189.869C515.606 190.563 514.629 190.953 513.61 190.953Z" fill="#CCCCCC"/>
<path d="M548.517 129.213C561.189 129.213 571.461 119.316 571.461 107.107C571.461 94.8975 561.189 85 548.517 85C535.846 85 525.574 94.8975 525.574 107.107C525.574 119.316 535.846 129.213 548.517 129.213Z" fill="#3626A7"/>
<path d="M545.387 118.612C544.991 118.612 544.6 118.523 544.246 118.352C543.892 118.182 543.584 117.934 543.346 117.628L537.087 109.587C536.886 109.328 536.739 109.034 536.656 108.722C536.573 108.409 536.555 108.083 536.602 107.764C536.649 107.444 536.762 107.136 536.932 106.858C537.103 106.581 537.329 106.338 537.597 106.144C537.865 105.95 538.17 105.809 538.495 105.729C538.82 105.649 539.158 105.631 539.489 105.677C539.821 105.723 540.14 105.831 540.429 105.996C540.717 106.16 540.969 106.378 541.17 106.636L545.265 111.897L555.783 96.6958C556.158 96.1531 556.742 95.7764 557.406 95.6485C558.069 95.5206 558.759 95.6519 559.322 96.0137C559.885 96.3755 560.276 96.938 560.409 97.5775C560.542 98.2171 560.405 98.8812 560.03 99.4239L547.511 117.517C547.285 117.844 546.98 118.114 546.623 118.305C546.266 118.495 545.866 118.6 545.458 118.611C545.435 118.612 545.411 118.612 545.387 118.612Z" fill="white"/>
<path d="M460.683 315.757H311.134C300.872 315.746 291.033 311.812 283.776 304.82C276.519 297.828 272.437 288.348 272.425 278.46V201.821C272.427 200.622 272.922 199.473 273.802 198.625C274.682 197.777 275.875 197.3 277.12 197.298H460.683C461.927 197.3 463.121 197.777 464.001 198.625C464.881 199.473 465.376 200.622 465.377 201.821V311.233C465.376 312.433 464.881 313.582 464.001 314.43C463.121 315.278 461.927 315.755 460.683 315.757Z" fill="white"/>
<path d="M460.683 316.167H311.134C300.759 316.155 290.812 312.179 283.475 305.11C276.139 298.041 272.012 288.457 272 278.46V201.821C272.002 200.514 272.541 199.26 273.501 198.335C274.461 197.41 275.762 196.89 277.12 196.888H460.683C462.04 196.89 463.342 197.41 464.301 198.335C465.261 199.26 465.801 200.514 465.803 201.821V311.233C465.801 312.541 465.261 313.795 464.301 314.72C463.342 315.645 462.04 316.165 460.683 316.167ZM277.12 198.528C276.214 198.529 275.345 198.876 274.704 199.494C274.063 200.111 273.703 200.948 273.701 201.821V278.46C273.713 288.022 277.66 297.19 284.678 303.951C291.695 310.713 301.21 314.516 311.134 314.527H460.683C461.589 314.526 462.458 314.179 463.099 313.561C463.74 312.944 464.1 312.107 464.101 311.233V201.821C464.1 200.948 463.74 200.111 463.099 199.494C462.458 198.876 461.589 198.529 460.683 198.528H277.12Z" fill="#CCCCCC"/>
<path d="M424.397 234.249H313.405C312.386 234.249 311.409 233.859 310.689 233.164C309.968 232.47 309.563 231.529 309.563 230.547C309.563 229.565 309.968 228.623 310.689 227.929C311.409 227.235 312.386 226.845 313.405 226.845H424.397C425.416 226.845 426.393 227.235 427.114 227.929C427.834 228.623 428.239 229.565 428.239 230.547C428.239 231.529 427.834 232.47 427.114 233.164C426.393 233.859 425.416 234.249 424.397 234.249Z" fill="#CCCCCC"/>
<path d="M424.397 259.751H313.405C312.386 259.751 311.409 259.361 310.689 258.667C309.968 257.972 309.563 257.031 309.563 256.049C309.563 255.067 309.968 254.125 310.689 253.431C311.409 252.737 312.386 252.347 313.405 252.347H424.397C425.416 252.347 426.393 252.737 427.114 253.431C427.835 254.125 428.239 255.067 428.239 256.049C428.239 257.031 427.835 257.972 427.114 258.667C426.393 259.361 425.416 259.751 424.397 259.751Z" fill="#CCCCCC"/>
<path d="M424.397 285.982H313.405C312.386 285.982 311.409 285.592 310.689 284.898C309.968 284.203 309.563 283.262 309.563 282.28C309.563 281.298 309.968 280.356 310.689 279.662C311.409 278.968 312.386 278.578 313.405 278.578H424.397C425.416 278.578 426.393 278.968 427.114 279.662C427.835 280.356 428.239 281.298 428.239 282.28C428.239 283.262 427.835 284.203 427.114 284.898C426.393 285.592 425.416 285.982 424.397 285.982Z" fill="#CCCCCC"/>
<path d="M460.891 225.12C473.562 225.12 483.834 215.223 483.834 203.014C483.834 190.804 473.562 180.907 460.891 180.907C448.219 180.907 437.947 190.804 437.947 203.014C437.947 215.223 448.219 225.12 460.891 225.12Z" fill="#3626A7"/>
<path d="M457.761 214.519C457.365 214.519 456.974 214.43 456.619 214.259C456.265 214.089 455.957 213.841 455.719 213.535L449.46 205.494C449.259 205.235 449.113 204.941 449.029 204.629C448.946 204.316 448.928 203.99 448.975 203.671C449.023 203.351 449.135 203.043 449.306 202.765C449.477 202.488 449.702 202.245 449.971 202.051C450.239 201.857 450.544 201.716 450.868 201.636C451.193 201.556 451.531 201.538 451.863 201.584C452.194 201.63 452.514 201.738 452.802 201.903C453.09 202.067 453.342 202.285 453.543 202.543L457.638 207.804L468.156 192.603C468.532 192.06 469.115 191.683 469.779 191.555C470.443 191.428 471.132 191.559 471.695 191.921C472.258 192.283 472.649 192.845 472.782 193.485C472.915 194.124 472.779 194.788 472.403 195.331L459.885 213.424C459.658 213.751 459.354 214.021 458.996 214.212C458.639 214.402 458.24 214.507 457.832 214.518C457.808 214.519 457.784 214.519 457.761 214.519Z" fill="white"/>
<path d="M647.017 417.74H437.764C427.502 417.729 417.663 413.796 410.406 406.804C403.149 399.812 399.067 390.332 399.055 380.443V267.721C399.057 266.175 399.695 264.693 400.83 263.6C401.964 262.507 403.502 261.892 405.107 261.89H647.017C648.621 261.892 650.159 262.507 651.293 263.6C652.428 264.693 653.066 266.175 653.067 267.721V411.909C653.066 413.455 652.428 414.937 651.293 416.03C650.159 417.124 648.621 417.738 647.017 417.74Z" fill="white"/>
<path d="M647.017 418.15H437.764C427.389 418.139 417.442 414.163 410.105 407.094C402.769 400.025 398.642 390.44 398.63 380.443V267.721C398.632 266.066 399.315 264.48 400.529 263.31C401.743 262.14 403.39 261.482 405.107 261.48H647.017C648.734 261.482 650.38 262.14 651.594 263.31C652.808 264.48 653.491 266.066 653.493 267.721V411.91C653.491 413.564 652.808 415.15 651.594 416.32C650.38 417.49 648.734 418.148 647.017 418.15ZM405.107 263.12C403.841 263.121 402.627 263.606 401.732 264.469C400.837 265.332 400.333 266.501 400.332 267.721V380.443C400.343 390.006 404.29 399.173 411.308 405.935C418.325 412.697 427.84 416.5 437.764 416.511H647.017C648.283 416.509 649.496 416.024 650.391 415.161C651.286 414.299 651.79 413.129 651.791 411.91V267.721C651.79 266.501 651.286 265.332 650.391 264.469C649.496 263.606 648.283 263.121 647.017 263.12H405.107Z" fill="#CCCCCC"/>
<path d="M599.197 310.455H452.926C452.26 310.456 451.601 310.33 450.986 310.086C450.371 309.841 449.812 309.482 449.341 309.028C448.871 308.575 448.497 308.037 448.242 307.445C447.987 306.853 447.856 306.218 447.856 305.577C447.856 304.935 447.987 304.3 448.242 303.708C448.497 303.116 448.871 302.578 449.341 302.125C449.812 301.672 450.371 301.312 450.986 301.067C451.601 300.823 452.26 300.697 452.926 300.698H599.197C599.863 300.697 600.522 300.823 601.137 301.067C601.752 301.312 602.311 301.672 602.782 302.125C603.252 302.578 603.626 303.116 603.881 303.708C604.136 304.3 604.267 304.935 604.267 305.577C604.267 306.218 604.136 306.853 603.881 307.445C603.626 308.037 603.252 308.575 602.782 309.028C602.311 309.482 601.752 309.841 601.137 310.086C600.522 310.33 599.863 310.456 599.197 310.455Z" fill="#CCCCCC"/>
<path d="M599.197 344.063H452.926C452.26 344.064 451.601 343.938 450.986 343.694C450.371 343.449 449.812 343.09 449.341 342.636C448.871 342.183 448.497 341.645 448.242 341.053C447.987 340.461 447.856 339.826 447.856 339.185C447.856 338.543 447.987 337.908 448.242 337.316C448.497 336.724 448.871 336.186 449.341 335.733C449.812 335.279 450.371 334.92 450.986 334.675C451.601 334.431 452.26 334.305 452.926 334.306H599.197C600.54 334.306 601.828 334.82 602.777 335.735C603.727 336.65 604.26 337.891 604.26 339.185C604.26 340.478 603.727 341.719 602.777 342.634C601.828 343.549 600.54 344.063 599.197 344.063Z" fill="#CCCCCC"/>
<path d="M599.197 378.632H452.926C451.583 378.632 450.295 378.118 449.346 377.203C448.396 376.288 447.863 375.047 447.863 373.753C447.863 372.459 448.396 371.218 449.346 370.304C450.295 369.389 451.583 368.875 452.926 368.875H599.197C599.863 368.874 600.522 368.999 601.137 369.244C601.752 369.489 602.311 369.848 602.782 370.301C603.252 370.754 603.626 371.292 603.881 371.885C604.136 372.477 604.267 373.112 604.267 373.753C604.267 374.394 604.136 375.029 603.881 375.622C603.626 376.214 603.252 376.752 602.782 377.205C602.311 377.658 601.752 378.017 601.137 378.262C600.522 378.507 599.863 378.633 599.197 378.632Z" fill="#CCCCCC"/>
<path d="M647.777 298.699C663.817 298.699 676.82 286.17 676.82 270.715C676.82 255.259 663.817 242.73 647.777 242.73C631.736 242.73 618.733 255.259 618.733 270.715C618.733 286.17 631.736 298.699 647.777 298.699Z" fill="#3626A7"/>
<path d="M643.814 285.279C643.313 285.279 642.818 285.167 642.37 284.951C641.921 284.734 641.531 284.42 641.23 284.034L633.307 273.854C633.052 273.527 632.867 273.155 632.762 272.759C632.656 272.363 632.633 271.951 632.693 271.546C632.753 271.142 632.895 270.752 633.111 270.401C633.328 270.049 633.614 269.742 633.953 269.496C634.292 269.251 634.679 269.073 635.09 268.971C635.501 268.87 635.928 268.847 636.348 268.905C636.768 268.963 637.172 269.1 637.537 269.308C637.902 269.517 638.221 269.792 638.476 270.119L643.66 276.778L656.974 257.536C657.449 256.85 658.188 256.374 659.028 256.213C659.867 256.052 660.739 256.218 661.452 256.676C662.164 257.133 662.659 257.845 662.827 258.653C662.995 259.462 662.824 260.302 662.35 260.989L646.503 283.893C646.216 284.307 645.831 284.649 645.379 284.89C644.926 285.131 644.421 285.264 643.904 285.278C643.874 285.279 643.844 285.279 643.814 285.279Z" fill="white"/>
<path d="M723.018 640.659L711.202 644.467L690.336 602.364L707.776 596.744L723.018 640.659Z" fill="#FFB6B6"/>
<path d="M729.862 650.724L691.761 660.542L691.6 660.078C690.276 656.261 690.573 654.635 692.437 651.033C693.349 649.26 694.617 647.678 696.167 646.38C697.718 645.081 699.52 644.092 701.47 643.469L701.471 643.469L706.664 636.139L721.416 637.042L724.742 635.97L729.862 650.724Z" fill="#2F2E41"/>
<path d="M752.212 651.364H739.753L733.825 605.058L752.214 605.059L752.212 651.364Z" fill="#FFB6B6"/>
<path d="M755.39 660.542L715.214 660.541V660.051C715.215 656.027 716.841 654.702 719.795 651.856C721.244 650.453 722.967 649.34 724.865 648.583C726.763 647.826 728.798 647.438 730.852 647.444H730.853L738.191 642.079L751.883 647.444L755.39 647.445L755.39 660.542Z" fill="#2F2E41"/>
<path d="M657.387 280.352C657.643 281.61 658.183 282.798 658.968 283.833C659.752 284.868 660.763 285.725 661.929 286.343C663.094 286.961 664.386 287.325 665.713 287.41C667.041 287.495 668.371 287.298 669.611 286.834L683.996 301.303L695.253 295.026L674.642 274.867C673.695 272.911 672.036 271.358 669.98 270.503C667.923 269.647 665.613 269.548 663.486 270.224C661.359 270.9 659.563 272.305 658.439 274.171C657.315 276.038 656.94 278.237 657.387 280.352Z" fill="#FFB6B6"/>
<path d="M750.477 353.107L756.961 346.643L719.462 313.179L681.72 280.709L671.267 294.94L710.817 330.511L750.477 353.107Z" fill="#E4E4E4"/>
<path d="M727.436 572.711C727.436 564.587 727.603 558.792 727.737 554.136C728.129 540.51 728.234 536.847 722.822 513.381L721.432 507.354L713.236 531.047C710.618 538.605 709.28 546.52 709.274 554.488L721.912 627.551H696.081L677.163 548.563L677.154 524.401C675.487 522.739 674.556 520.518 674.556 518.207C674.556 515.896 675.487 513.675 677.154 512.013L683.439 475.816L689.801 427.031H759.483C759.483 427.031 771.781 451.592 759.56 475.954L759.558 572.741L753.244 639.663H733.751L727.436 572.711Z" fill="#2F2E41"/>
<path d="M755.223 432.936L690.045 427.703L689.706 427.676L694.908 337.463C695.214 331.791 697.279 326.338 700.837 321.81C704.395 317.281 709.282 313.886 714.865 312.063V305.75C714.867 304.188 715.512 302.69 716.659 301.585C717.806 300.48 719.36 299.858 720.982 299.857H730.505C731.642 299.853 732.757 300.156 733.724 300.732C734.691 301.308 735.471 302.133 735.976 303.115L740.633 312.088L758.242 325.662C766.939 332.366 759.94 399.581 759.563 403.128L763.822 423.646C764.056 424.775 764.028 425.939 763.739 427.056C763.45 428.173 762.909 429.215 762.152 430.106C761.396 430.997 760.444 431.715 759.366 432.21C758.287 432.704 757.108 432.962 755.913 432.965C755.684 432.964 755.454 432.955 755.223 432.936Z" fill="#E4E4E4"/>
<path d="M686.2 456.756C687.23 455.945 688.064 454.927 688.641 453.772C689.219 452.617 689.527 451.355 689.543 450.073C689.56 448.791 689.284 447.522 688.736 446.354C688.188 445.185 687.381 444.147 686.372 443.312L692.839 424.27L681.787 417.661L673.047 444.676C671.703 446.403 671.064 448.545 671.25 450.695C671.435 452.846 672.433 454.856 674.055 456.345C675.676 457.834 677.808 458.698 680.046 458.774C682.285 458.85 684.474 458.132 686.2 456.756Z" fill="#FFB6B6"/>
<path d="M708.93 327.299L699.957 324.417L686.996 380.131L675.06 435.539L693.013 438.085L706.935 379.171L708.93 327.299Z" fill="#E4E4E4"/>
<path d="M718.728 294.09C730.551 294.09 740.135 284.856 740.135 273.464C740.135 262.073 730.551 252.839 718.728 252.839C706.906 252.839 697.322 262.073 697.322 273.464C697.322 284.856 706.906 294.09 718.728 294.09Z" fill="#FFB6B6"/>
<path d="M689.926 263.363C690.123 261.409 690.705 259.508 691.639 257.763C692.64 259.859 695.761 260.223 697.898 259.18C700.034 258.136 701.466 256.154 702.992 254.376C707.021 249.684 712.562 245.877 718.841 245.184C725.12 244.491 732.041 247.545 734.414 253.189C735.478 251.765 737.75 251.607 739.357 252.434C740.909 253.377 742.12 254.76 742.824 256.393C744.405 259.517 745.298 262.922 745.447 266.394C745.597 269.867 745.001 273.331 743.695 276.571C741.051 283.018 734.521 291.704 727.785 294.137C723.695 295.614 719.564 293.724 715.214 294.137C715.442 289.563 716.363 283.92 716.59 279.346C716.715 276.841 716.733 274.038 714.958 272.205C714.413 271.707 713.761 271.33 713.049 271.101C712.336 270.872 711.58 270.797 710.834 270.881C710.088 270.965 709.371 271.206 708.732 271.587C708.093 271.967 707.549 272.479 707.138 273.084C706.918 271.662 706.42 270.293 705.669 269.051C705.284 268.434 704.728 267.934 704.064 267.606C703.4 267.278 702.653 267.136 701.909 267.195C700.093 267.481 698.971 269.278 697.305 270.03C696.358 270.396 695.318 270.474 694.324 270.254C693.33 270.034 692.43 269.528 691.743 268.801C691.076 268.059 690.571 267.195 690.259 266.261C689.946 265.327 689.833 264.341 689.926 263.363Z" fill="#2F2E41"/>
<path opacity="0.1" d="M721.499 378.921L696.359 427.368H715.215L721.499 378.921Z" fill="black"/>
<path d="M890 662.025C890 662.153 889.974 662.28 889.924 662.398C889.873 662.517 889.799 662.625 889.704 662.715C889.61 662.806 889.499 662.878 889.376 662.927C889.253 662.975 889.121 663 888.988 663H408.921C408.653 663 408.395 662.897 408.205 662.714C408.015 662.531 407.909 662.283 407.909 662.025C407.909 661.766 408.015 661.518 408.205 661.335C408.395 661.152 408.653 661.049 408.921 661.049H888.988C889.121 661.049 889.253 661.074 889.376 661.123C889.499 661.171 889.61 661.243 889.704 661.334C889.799 661.425 889.873 661.532 889.924 661.651C889.975 661.769 890 661.896 890 662.025Z" fill="#CACACA"/>
</g>
<defs>
<clipPath id="clip0_13_124">
<rect width="460" height="407" fill="white" transform="translate(0 256)"/>
</clipPath>
<clipPath id="clip1_13_124">
<rect width="618" height="578" fill="white" transform="translate(272 85)"/>
</clipPath>
</defs>
</svg>








